<?xml version="1.0" encoding="UTF-8"?>
<svg version="1.1" xmlns="http://www.w3.org/2000/svg" width="256" height="256">
<path d="M0 0 C53.46 0 106.92 0 162 0 C162.33 0.66 162.66 1.32 163 2 C163.99 2.33 164.98 2.66 166 3 C166 3.66 166 4.32 166 5 C166.66 5 167.32 5 168 5 C168.33 5.99 168.66 6.98 169 8 C169.99 8.495 169.99 8.495 171 9 C171 13.29 171 17.58 171 22 C171.66 22 172.32 22 173 22 C173.12375 22.804375 173.2475 23.60875 173.375 24.4375 C173.58125 25.283125 173.7875 26.12875 174 27 C174.66 27.33 175.32 27.66 176 28 C176 30.31 176 32.62 176 35 C176.99 35 177.98 35 179 35 C179 48.2 179 61.4 179 75 C178.01 75 177.02 75 176 75 C176 76.32 176 77.64 176 79 C175.34 79 174.68 79 174 79 C174 79.66 174 80.32 174 81 C172.68 81 171.36 81 170 81 C170 81.66 170 82.32 170 83 C169.34 83 168.68 83 168 83 C168 111.38 168 139.76 168 169 C167.34 169.33 166.68 169.66 166 170 C165.855625 170.61875 165.71125 171.2375 165.5625 171.875 C164.88940535 174.41780199 164.07102132 175.40690667 162 177 C161.01 177 160.02 177 159 177 C158.67 177.99 158.34 178.98 158 180 C107.18 180 56.36 180 4 180 C3.67 179.01 3.34 178.02 3 177 C2.01 177 1.02 177 0 177 C-2.37859197 175.26179817 -2.94932885 174.19807812 -3.6875 171.3125 C-3.790625 170.549375 -3.89375 169.78625 -4 169 C-4.66 169 -5.32 169 -6 169 C-6 140.62 -6 112.24 -6 83 C-6.66 83 -7.32 83 -8 83 C-8 82.34 -8 81.68 -8 81 C-9.32 81 -10.64 81 -12 81 C-12 80.34 -12 79.68 -12 79 C-12.66 79 -13.32 79 -14 79 C-14 77.68 -14 76.36 -14 75 C-14.99 75 -15.98 75 -17 75 C-17 61.8 -17 48.6 -17 35 C-16.01 35 -15.02 35 -14 35 C-14 32.69 -14 30.38 -14 28 C-13.34 27.67 -12.68 27.34 -12 27 C-11.34444881 24.47266765 -11.34444881 24.47266765 -11 22 C-10.34 22 -9.68 22 -9 22 C-9 17.71 -9 13.42 -9 9 C-8.34 8.67 -7.68 8.34 -7 8 C-6.525625 7.175 -6.05125 6.35 -5.5625 5.5 C-4 3 -4 3 -1 2 C-0.67 1.34 -0.34 0.68 0 0 Z " fill="#FEA401" transform="translate(47,38)"/>
<path d="M0 0 C53.46 0 106.92 0 162 0 C162.33 0.66 162.66 1.32 163 2 C163.99 2.33 164.98 2.66 166 3 C166 3.66 166 4.32 166 5 C166.66 5 167.32 5 168 5 C168.33 5.99 168.66 6.98 169 8 C169.99 8.495 169.99 8.495 171 9 C171 13.29 171 17.58 171 22 C171.66 22 172.32 22 173 22 C173.12375 22.804375 173.2475 23.60875 173.375 24.4375 C173.58125 25.283125 173.7875 26.12875 174 27 C174.66 27.33 175.32 27.66 176 28 C176 30.31 176 32.62 176 35 C176.99 35 177.98 35 179 35 C179 48.2 179 61.4 179 75 C178.01 75 177.02 75 176 75 C176 76.32 176 77.64 176 79 C175.34 79 174.68 79 174 79 C174 79.66 174 80.32 174 81 C172.68 81 171.36 81 170 81 C170 81.66 170 82.32 170 83 C167.60182921 82.7435918 165.20756272 82.4704516 162.8125 82.1875 C161.80219727 82.08211914 161.80219727 82.08211914 160.77148438 81.97460938 C156.50680122 81.45452606 153.45436375 80.57788339 150 78 C148.6875 75.8125 148.6875 75.8125 148 74 C146.02 74 144.04 74 142 74 C141.79375 74.5775 141.5875 75.155 141.375 75.75 C139.33977284 79.08037172 137.52210892 80.26984123 134 82 C130.3070041 82.32510555 126.69645571 82.23678364 123 82 C122.67 81.34 122.34 80.68 122 80 C121.195625 79.566875 120.39125 79.13375 119.5625 78.6875 C116.58565053 76.72713571 115.99694959 75.35337589 115 72 C113.68 72 112.36 72 111 72 C110.7215625 73.0828125 110.7215625 73.0828125 110.4375 74.1875 C108.42680126 78.12147579 106.08410777 80.27432066 102 82 C98.29089324 82.39882868 94.71358655 82.30219059 91 82 C90.67 81.34 90.34 80.68 90 80 C89.195625 79.566875 88.39125 79.13375 87.5625 78.6875 C84.58565053 76.72713571 83.99694959 75.35337589 83 72 C81.68 72 80.36 72 79 72 C78.7215625 73.0828125 78.7215625 73.0828125 78.4375 74.1875 C76.42680126 78.12147579 74.08410777 80.27432066 70 82 C66.29089324 82.39882868 62.71358655 82.30219059 59 82 C58.67 81.34 58.34 80.68 58 80 C57.195625 79.566875 56.39125 79.13375 55.5625 78.6875 C52.58565053 76.72713571 51.99694959 75.35337589 51 72 C49.68 72 48.36 72 47 72 C46.7215625 73.0828125 46.7215625 73.0828125 46.4375 74.1875 C44.41182574 78.15077572 42.07732763 80.20888822 38 82 C33.16407154 82.96430716 28.95502467 83.01132565 24.515625 80.71484375 C22.48536798 79.24974693 20.67926596 77.85729702 19 76 C19 75.34 19 74.68 19 74 C15.98042366 75.00652545 14.17869078 75.81589435 11.9375 78.125 C10 80 10 80 6 80 C6 80.66 6 81.32 6 82 C1.38 82.33 -3.24 82.66 -8 83 C-8 82.34 -8 81.68 -8 81 C-9.32 81 -10.64 81 -12 81 C-12 80.34 -12 79.68 -12 79 C-12.66 79 -13.32 79 -14 79 C-14 77.68 -14 76.36 -14 75 C-14.99 75 -15.98 75 -17 75 C-17 61.8 -17 48.6 -17 35 C-16.01 35 -15.02 35 -14 35 C-14 32.69 -14 30.38 -14 28 C-13.34 27.67 -12.68 27.34 -12 27 C-11.34444881 24.47266765 -11.34444881 24.47266765 -11 22 C-10.34 22 -9.68 22 -9 22 C-9 17.71 -9 13.42 -9 9 C-8.34 8.67 -7.68 8.34 -7 8 C-6.525625 7.175 -6.05125 6.35 -5.5625 5.5 C-4 3 -4 3 -1 2 C-0.67 1.34 -0.34 0.68 0 0 Z " fill="#FC3C4E" transform="translate(47,38)"/>
<path d="M0 0 C22.77 0 45.54 0 69 0 C69.33 0.66 69.66 1.32 70 2 C70.99 2.33 71.98 2.66 73 3 C73 3.66 73 4.32 73 5 C73.66 5 74.32 5 75 5 C75.33 5.99 75.66 6.98 76 8 C76.99 8.495 76.99 8.495 78 9 C78 13.29 78 17.58 78 22 C78.66 22 79.32 22 80 22 C80.12375 22.804375 80.2475 23.60875 80.375 24.4375 C80.58125 25.283125 80.7875 26.12875 81 27 C81.66 27.33 82.32 27.66 83 28 C83 30.31 83 32.62 83 35 C83.99 35 84.98 35 86 35 C86 37.31 86 39.62 86 42 C29.57 42 -26.86 42 -85 42 C-86.37838284 37.86485148 -85.03705923 36.3142108 -83.1875 32.4375 C-82.64480469 31.28121094 -82.10210937 30.12492187 -81.54296875 28.93359375 C-80 26 -80 26 -78 24 C-75.47802734 23.77294922 -75.47802734 23.77294922 -72.3359375 23.8046875 C-71.21445313 23.81113281 -70.09296875 23.81757812 -68.9375 23.82421875 C-67.761875 23.84097656 -66.58625 23.85773437 -65.375 23.875 C-64.19164063 23.88402344 -63.00828125 23.89304687 -61.7890625 23.90234375 C-58.85917477 23.92597188 -55.9296866 23.95891486 -53 24 C-53 23.34 -53 22.68 -53 22 C-49.35788819 20.87882646 -45.8703103 20.81199691 -42.07421875 20.71875 C-41.07549492 20.69113586 -41.07549492 20.69113586 -40.05659485 20.66296387 C-37.93364959 20.60444741 -35.81062444 20.55157778 -33.6875 20.5 C-30.89959238 20.43176115 -28.11190358 20.35799703 -25.32421875 20.28125 C-24.08760498 20.25095703 -22.85099121 20.22066406 -21.5769043 20.18945312 C-14.89776138 19.83568786 -10.30016691 19.31408934 -5 15 C-3.61131484 12.89960669 -3.61131484 12.89960669 -3 11 C-2.34 11 -1.68 11 -1 11 C-0.67 7.37 -0.34 3.74 0 0 Z " fill="#D83343" transform="translate(140,38)"/>
<path d="M0 0 C0.85754883 -0.00669708 1.71509766 -0.01339417 2.59863281 -0.02029419 C4.4004275 -0.02502907 6.20234524 -0.01231153 8.00390625 0.01708984 C10.74494292 0.05461826 13.47795962 0.01738579 16.21875 -0.02734375 C17.97918418 -0.02271756 19.73961342 -0.01374785 21.5 0 C22.30856445 -0.01416962 23.11712891 -0.02833923 23.95019531 -0.04293823 C29.37864219 0.11173466 33.32574846 1.49700681 37.2409668 5.3503418 C40.65453748 11.18505693 39.70322406 18.46960194 39.53125 25.01953125 C39.51631376 26.6910175 39.50493327 28.36253897 39.49694824 30.03407288 C39.46652145 34.41620988 39.38804537 38.79619771 39.29931641 43.17749023 C39.20276291 48.44347977 39.16630068 53.71019138 39.11968994 58.97681427 C39.0423232 66.96259628 38.88898796 74.9436708 38.75 82.9296875 C20.27 82.9296875 1.79 82.9296875 -17.25 82.9296875 C-17.57087047 64.49300481 -17.57087047 64.49300481 -17.640625 56.61132812 C-17.68838255 51.24064616 -17.74476685 45.8710591 -17.85351562 40.5012207 C-17.94068084 36.1698518 -17.98832285 31.83965722 -18.00901794 27.50747871 C-18.02375787 25.85796181 -18.05254415 24.20850658 -18.09584045 22.55949211 C-18.41439092 9.91994637 -18.41439092 9.91994637 -15.7409668 5.3503418 C-11.08804137 0.77095981 -6.33075192 -0.11094271 0 0 Z " fill="#9B33C1" transform="translate(153.25,135.0703125)"/>
<path d="M0 0 C30.69 0 61.38 0 93 0 C93 8.4 93 8.4 92 11 C91.34 11.33 90.68 11.66 90 12 C89.566875 12.78375 89.13375 13.5675 88.6875 14.375 C86.71427858 17.44445554 85.30832687 18.49621506 82 20 C76.87363165 20.90848543 71.84834178 21.1975398 66.66015625 21.31640625 C65.89319931 21.33718735 65.12624237 21.35796844 64.33604431 21.37937927 C61.91161128 21.44420832 59.48707987 21.50344621 57.0625 21.5625 C55.40819338 21.60574879 53.75389633 21.64936499 52.09960938 21.69335938 C48.06650434 21.79982024 44.03330141 21.90127062 40 22 C40 22.66 40 23.32 40 24 C39.25838623 24.00410889 38.51677246 24.00821777 37.75268555 24.01245117 C34.3968092 24.04531841 31.04276512 24.11595525 27.6875 24.1875 C26.52025391 24.19330078 25.35300781 24.19910156 24.15039062 24.20507812 C23.03212891 24.23408203 21.91386719 24.26308594 20.76171875 24.29296875 C19.73006592 24.3086792 18.69841309 24.32438965 17.63549805 24.34057617 C14.79182298 24.75733552 14.79182298 24.75733552 13.22436523 27.37426758 C12.61830444 28.67400513 12.61830444 28.67400513 12 30 C11.55398437 30.8971875 11.10796875 31.794375 10.6484375 32.71875 C10.22820313 33.6365625 9.80796875 34.554375 9.375 35.5 C8.94960938 36.4178125 8.52421875 37.335625 8.0859375 38.28125 C6.12367312 43.19396947 5.81815815 47.72910295 5.75 53 C5.72421875 54.19625 5.6984375 55.3925 5.671875 56.625 C6.17563584 61.80654011 8.38397985 64.69699249 12.25 68 C14.98342027 70.65182563 14.98342027 70.65182563 15.125 73.625 C13.78259659 76.45896275 12.48543659 78.0826632 10 80 C8.68 80 7.36 80 6 80 C6 80.66 6 81.32 6 82 C1.38 82.33 -3.24 82.66 -8 83 C-8 82.34 -8 81.68 -8 81 C-9.32 81 -10.64 81 -12 81 C-12 80.34 -12 79.68 -12 79 C-12.66 79 -13.32 79 -14 79 C-14 77.68 -14 76.36 -14 75 C-14.99 75 -15.98 75 -17 75 C-17 61.8 -17 48.6 -17 35 C-16.01 35 -15.02 35 -14 35 C-14 32.69 -14 30.38 -14 28 C-13.34 27.67 -12.68 27.34 -12 27 C-11.34444881 24.47266765 -11.34444881 24.47266765 -11 22 C-10.34 22 -9.68 22 -9 22 C-9 17.71 -9 13.42 -9 9 C-8.34 8.67 -7.68 8.34 -7 8 C-6.525625 7.175 -6.05125 6.35 -5.5625 5.5 C-4 3 -4 3 -1 2 C-0.67 1.34 -0.34 0.68 0 0 Z " fill="#FD7481" transform="translate(47,38)"/>
<path d="M0 0 C1.22018829 -0.00262848 1.22018829 -0.00262848 2.46502686 -0.00531006 C5.1511855 -0.00970758 7.83727819 -0.00679795 10.5234375 -0.00341797 C12.39143893 -0.00409161 14.25944028 -0.00506214 16.12744141 -0.00631714 C20.04134964 -0.00779127 23.95523504 -0.00564868 27.86914062 -0.00097656 C32.88625913 0.00472055 37.90332413 0.00144002 42.92044067 -0.00454903 C46.77742923 -0.00816231 50.6344051 -0.00701251 54.49139404 -0.00442123 C56.34136969 -0.00375409 58.19134649 -0.00457297 60.0413208 -0.00690079 C62.62653658 -0.00943985 65.21166568 -0.00556895 67.796875 0 C68.56167175 -0.00202423 69.32646851 -0.00404846 70.11444092 -0.00613403 C73.51363312 0.00743289 76.64973014 0.05947965 79.8984375 1.12939453 C79.8984375 1.78939453 79.8984375 2.44939453 79.8984375 3.12939453 C85.1784375 3.12939453 90.4584375 3.12939453 95.8984375 3.12939453 C95.8984375 3.78939453 95.8984375 4.44939453 95.8984375 5.12939453 C99.1984375 5.45939453 102.4984375 5.78939453 105.8984375 6.12939453 C105.8984375 6.78939453 105.8984375 7.44939453 105.8984375 8.12939453 C107.0740625 8.59345703 107.0740625 8.59345703 108.2734375 9.06689453 C110.8984375 10.12939453 110.8984375 10.12939453 112.8984375 11.12939453 C113.2109375 13.94189453 113.2109375 13.94189453 112.8984375 17.12939453 C110.50951249 19.01538796 108.97992192 20.12939453 105.8984375 20.12939453 C105.8984375 20.78939453 105.8984375 21.44939453 105.8984375 22.12939453 C102.5984375 22.45939453 99.2984375 22.78939453 95.8984375 23.12939453 C95.8984375 23.78939453 95.8984375 24.44939453 95.8984375 25.12939453 C83.50934989 26.09129299 71.19479588 26.27720574 58.7734375 26.26220703 C56.77197254 26.26288295 54.77050765 26.26385536 52.76904297 26.2651062 C48.60057789 26.26656963 44.43213442 26.26447263 40.26367188 26.25976562 C34.96558917 26.2540692 29.66755717 26.25735552 24.36947632 26.26333809 C20.244381 26.26698055 16.11929736 26.26578833 11.99420166 26.2632103 C10.04250075 26.26255118 8.09079872 26.26333319 6.13909912 26.26568985 C-5.31891575 26.27649478 -16.67452183 26.01659891 -28.1015625 25.12939453 C-28.1015625 24.46939453 -28.1015625 23.80939453 -28.1015625 23.12939453 C-31.4015625 22.79939453 -34.7015625 22.46939453 -38.1015625 22.12939453 C-38.1015625 21.46939453 -38.1015625 20.80939453 -38.1015625 20.12939453 C-38.8853125 19.82001953 -39.6690625 19.51064453 -40.4765625 19.19189453 C-43.1015625 18.12939453 -43.1015625 18.12939453 -45.1015625 17.12939453 C-45.4140625 14.31689453 -45.4140625 14.31689453 -45.1015625 11.12939453 C-42.71263749 9.2434011 -41.18304692 8.12939453 -38.1015625 8.12939453 C-38.1015625 7.46939453 -38.1015625 6.80939453 -38.1015625 6.12939453 C-34.8015625 5.79939453 -31.5015625 5.46939453 -28.1015625 5.12939453 C-28.1015625 4.46939453 -28.1015625 3.80939453 -28.1015625 3.12939453 C-22.8215625 3.12939453 -17.5415625 3.12939453 -12.1015625 3.12939453 C-12.1015625 2.46939453 -12.1015625 1.80939453 -12.1015625 1.12939453 C-8.13582005 -0.17666551 -4.12444067 -0.01091639 0 0 Z " fill="#000000" transform="translate(94.1015625,229.87060546875)"/>
<path d="M0 0 C0.7940625 0.00515625 1.588125 0.0103125 2.40625 0.015625 C3.2003125 0.01046875 3.994375 0.0053125 4.8125 0 C6.90625 0.265625 6.90625 0.265625 8.90625 2.265625 C9.09431596 5.00667269 9.15803404 7.64586787 9.13330078 10.38720703 C9.13359283 11.22630615 9.13388489 12.06540527 9.13418579 12.92993164 C9.13278933 15.71120444 9.11721335 18.49221134 9.1015625 21.2734375 C9.09783349 23.19871881 9.09498599 25.12400201 9.09298706 27.04928589 C9.08534176 32.1226727 9.0656856 37.19594544 9.0435791 42.26928711 C9.02313995 47.44383196 9.01398948 52.61839519 9.00390625 57.79296875 C8.98244054 67.95057102 8.94829381 78.10808853 8.90625 88.265625 C7.91625 88.760625 7.91625 88.760625 6.90625 89.265625 C6.761875 89.884375 6.6175 90.503125 6.46875 91.140625 C5.79565535 93.68342699 4.97727132 94.67253167 2.90625 96.265625 C1.91625 96.265625 0.92625 96.265625 -0.09375 96.265625 C-0.42375 97.255625 -0.75375 98.245625 -1.09375 99.265625 C-5.38375 99.265625 -9.67375 99.265625 -14.09375 99.265625 C-14.09517502 98.33934296 -14.09660004 97.41306091 -14.09806824 96.45870972 C-14.11591571 87.71893747 -14.15758107 78.97967057 -14.22584057 70.24014091 C-14.26009607 65.74726595 -14.28521827 61.25473048 -14.28930664 56.76171875 C-14.29359274 52.42365724 -14.3220806 48.08636141 -14.36718178 43.74853897 C-14.38014694 42.09563791 -14.38446791 40.44264517 -14.37990379 38.78969955 C-14.3749904 36.46947857 -14.40111778 34.15148916 -14.43432617 31.83154297 C-14.44098801 30.51249969 -14.44764984 29.19345642 -14.45451355 27.83444214 C-15.2786506 23.23333651 -16.87632027 21.57248601 -20.09375 18.265625 C-17.09375 19.765625 -17.09375 19.765625 -14.09375 21.265625 C-14.2175 19.47125 -14.2175 19.47125 -14.34375 17.640625 C-14.32778328 13.11405895 -13.0505323 10.76707772 -10.09375 7.265625 C-8.15991246 5.48471849 -6.16869842 3.88949767 -4.09375 2.265625 C-2.09375 0.265625 -2.09375 0.265625 0 0 Z " fill="#D88B02" transform="translate(206.09375,118.734375)"/>
<path d="M0 0 C0.87269531 -0.0038269 1.74539062 -0.00765381 2.64453125 -0.01159668 C4.48699092 -0.0143149 6.32948924 -0.00695994 8.171875 0.00976562 C10.99045934 0.03117752 13.80649485 0.00996199 16.625 -0.015625 C18.41667229 -0.01298171 20.20834299 -0.00785669 22 0 C22.84175781 -0.00809692 23.68351562 -0.01619385 24.55078125 -0.02453613 C28.2033036 0.03393561 30.38742192 0.14856609 33.52929688 2.11132812 C35.55400881 5.44282624 35.51769798 7.89375513 35.53125 11.78125 C35.5350769 12.47637695 35.53890381 13.17150391 35.54284668 13.88769531 C35.5455618 15.35353041 35.53822835 16.81941428 35.52148438 18.28515625 C35.50006419 20.52453975 35.52129443 22.76071587 35.546875 25 C35.54423165 26.42709039 35.5391065 27.85417879 35.53125 29.28125 C35.52673828 30.57546875 35.52222656 31.8696875 35.51757812 33.203125 C35 36.53125 35 36.53125 33.52929688 38.95117188 C29.75525257 41.3088567 26.36921818 41.1045278 22 41.0625 C21.12730469 41.0663269 20.25460938 41.07015381 19.35546875 41.07409668 C17.51300908 41.0768149 15.67051076 41.06945994 13.828125 41.05273438 C11.00954066 41.03132248 8.19350515 41.05253801 5.375 41.078125 C3.58332771 41.07548171 1.79165701 41.07035669 0 41.0625 C-0.84175781 41.07059692 -1.68351562 41.07869385 -2.55078125 41.08703613 C-6.2033036 41.02856439 -8.38742192 40.91393391 -11.52929688 38.95117188 C-13.55400881 35.61967376 -13.51769798 33.16874487 -13.53125 29.28125 C-13.5350769 28.58612305 -13.53890381 27.89099609 -13.54284668 27.17480469 C-13.5455618 25.70896959 -13.53822835 24.24308572 -13.52148438 22.77734375 C-13.50006419 20.53796025 -13.52129443 18.30178413 -13.546875 16.0625 C-13.54423165 14.63540961 -13.5391065 13.20832121 -13.53125 11.78125 C-13.52673828 10.48703125 -13.52222656 9.1928125 -13.51757812 7.859375 C-13 4.53125 -13 4.53125 -11.52929688 2.11132812 C-7.75525257 -0.2463567 -4.36921818 -0.0420278 0 0 Z " fill="#9F37BB" transform="translate(77,135.46875)"/>
<path d="M0 0 C22.77 0 45.54 0 69 0 C69.495 0.99 69.495 0.99 70 2 C70.99 2.33 71.98 2.66 73 3 C73 3.66 73 4.32 73 5 C73.66 5 74.32 5 75 5 C75.33 5.99 75.66 6.98 76 8 C76.99 8.495 76.99 8.495 78 9 C78 13.29 78 17.58 78 22 C66.53062165 22.13295599 55.06121796 22.26346091 43.59177971 22.39115143 C38.26136825 22.4505658 32.93096747 22.51070846 27.60058594 22.57275391 C0.73249907 22.88488003 -26.13002336 23.07859458 -53 23 C-49.22103126 20.94113434 -46.40280313 20.70903977 -42.07421875 20.62109375 C-41.40840286 20.60409927 -40.74258698 20.5871048 -40.05659485 20.56959534 C-37.93365913 20.51665434 -35.81073725 20.4763059 -33.6875 20.4375 C-31.57507923 20.39328486 -29.46279419 20.3462731 -27.35054016 20.29469299 C-25.42612493 20.24853787 -23.50151267 20.21082476 -21.5769043 20.17358398 C-14.8947381 19.8493044 -10.29907351 19.31319937 -5 15 C-3.61131484 12.89960669 -3.61131484 12.89960669 -3 11 C-2.34 11 -1.68 11 -1 11 C-0.67 7.37 -0.34 3.74 0 0 Z " fill="#FC3C4F" transform="translate(140,38)"/>
<path d="M0 0 C0.99 0.33 1.98 0.66 3 1 C4.51773426 1.14130906 6.04021959 1.23452957 7.56323242 1.29711914 C8.94432442 1.3570681 8.94432442 1.3570681 10.35331726 1.41822815 C11.83938225 1.47610756 11.83938225 1.47610756 13.35546875 1.53515625 C14.88062859 1.59962196 14.88062859 1.59962196 16.43659973 1.66539001 C19.68674537 1.80183013 22.93710159 1.93223457 26.1875 2.0625 C28.38999048 2.15389971 30.59246471 2.2456917 32.79492188 2.33789062 C38.19643432 2.56314722 43.59813197 2.78344777 49 3 C49 3.33 49 3.66 49 4 C48.25838623 4.00410889 47.51677246 4.00821777 46.75268555 4.01245117 C43.3968092 4.04531841 40.04276512 4.11595525 36.6875 4.1875 C35.52025391 4.19330078 34.35300781 4.19910156 33.15039062 4.20507812 C32.03212891 4.23408203 30.91386719 4.26308594 29.76171875 4.29296875 C28.73006592 4.3086792 27.69841309 4.32438965 26.63549805 4.34057617 C23.79182298 4.75733552 23.79182298 4.75733552 22.22436523 7.37426758 C21.82032471 8.24075928 21.41628418 9.10725098 21 10 C20.55398437 10.8971875 20.10796875 11.794375 19.6484375 12.71875 C19.22820313 13.6365625 18.80796875 14.554375 18.375 15.5 C17.94960938 16.4178125 17.52421875 17.335625 17.0859375 18.28125 C15.12367312 23.19396947 14.81815815 27.72910295 14.75 33 C14.72421875 34.19625 14.6984375 35.3925 14.671875 36.625 C15.17563584 41.80654011 17.38397985 44.69699249 21.25 48 C23.98342027 50.65182563 23.98342027 50.65182563 24.125 53.625 C22.78259659 56.45896275 21.48543659 58.0826632 19 60 C17.68 60 16.36 60 15 60 C15 60.66 15 61.32 15 62 C10.38 62.33 5.76 62.66 1 63 C1 62.34 1 61.68 1 61 C-0.32 61 -1.64 61 -3 61 C-3 60.34 -3 59.68 -3 59 C-3.66 59 -4.32 59 -5 59 C-5 57.68 -5 56.36 -5 55 C-5.99 55 -6.98 55 -8 55 C-8 41.8 -8 28.6 -8 15 C-7.01 15 -6.02 15 -5 15 C-5 12.69 -5 10.38 -5 8 C-4.34 7.67 -3.68 7.34 -3 7 C-2.34444881 4.47266765 -2.34444881 4.47266765 -2 2 C-1.34 2 -0.68 2 0 2 C0 1.34 0 0.68 0 0 Z " fill="#FD7481" transform="translate(38,58)"/>
<path d="M0 0 C0.33 0 0.66 0 1 0 C1 8.25 1 16.5 1 25 C-16.82 25 -34.64 25 -53 25 C-53 5 -53 5 -52 4 C-50.55381381 3.88290105 -49.10211615 3.83277537 -47.65136719 3.81054688 C-46.72660583 3.79382935 -45.80184448 3.77711182 -44.84906006 3.7598877 C-43.84183899 3.74631226 -42.83461792 3.73273682 -41.796875 3.71875 C-40.7669342 3.70034058 -39.73699341 3.68193115 -38.67584229 3.66296387 C-35.36728826 3.60400883 -32.0586808 3.55131597 -28.75 3.5 C-24.4113508 3.43227783 -20.07286357 3.35851018 -15.734375 3.28125 C-14.73525085 3.26767456 -13.73612671 3.25409912 -12.70672607 3.2401123 C-11.30067108 3.21503601 -11.30067108 3.21503601 -9.86621094 3.18945312 C-9.04538025 3.17692505 -8.22454956 3.16439697 -7.37884521 3.15148926 C-4.84780804 2.99030813 -2.47333407 2.54984368 0 2 C0 1.34 0 0.68 0 0 Z " fill="#852CA5" transform="translate(190,193)"/>
<path d="M0 0 C0.66 0 1.32 0 2 0 C2 8.58 2 17.16 2 26 C2.66 26.33 3.32 26.66 4 27 C3.67 27.33 3.34 27.66 3 28 C2.75730194 32.52374477 2.77147743 37.05298069 2.75976562 41.58251953 C2.75006913 43.85877139 2.71906371 46.13411692 2.6875 48.41015625 C2.68096921 49.85416129 2.67571904 51.29817281 2.671875 52.7421875 C2.6625293 54.0607373 2.65318359 55.37928711 2.64355469 56.73779297 C2.70799092 59.91346961 2.70799092 59.91346961 4.27348328 61.68161011 C7.34702323 64.02860389 11.25708188 63.38189413 14.97265625 63.328125 C15.85150986 63.32625183 16.73036346 63.32437866 17.635849 63.32244873 C19.49270423 63.3157285 21.34954531 63.30181455 23.20629883 63.28125 C26.05498344 63.25008224 28.90311487 63.2402778 31.75195312 63.234375 C33.55469427 63.22520548 35.35742978 63.21482987 37.16015625 63.203125 C38.44298241 63.19675018 38.44298241 63.19675018 39.75172424 63.19024658 C44.01115119 63.25674002 44.01115119 63.25674002 48 62 C47.67 62.99 47.34 63.98 47 65 C41.09184657 65.09890033 35.18417528 65.17148371 29.27539062 65.21972656 C27.26553962 65.23983805 25.25574709 65.26713115 23.24609375 65.30175781 C20.35662404 65.35029634 17.46792809 65.37297322 14.578125 65.390625 C13.23104462 65.42159271 13.23104462 65.42159271 11.85675049 65.45318604 C5.70118603 65.45539852 5.70118603 65.45539852 2.42578125 63.328125 C0.66036542 60.44541861 0.5377139 58.72744671 0.609375 55.359375 C0.62871094 53.75449219 0.62871094 53.75449219 0.6484375 52.1171875 C0.68195312 51.00601563 0.71546875 49.89484375 0.75 48.75 C0.76804687 47.62335938 0.78609375 46.49671875 0.8046875 45.3359375 C0.85179778 42.55643104 0.91756639 39.7786466 1 37 C0.34 37 -0.32 37 -1 37 C-1.2475 37.928125 -1.495 38.85625 -1.75 39.8125 C-3.1117234 43.28489468 -3.80289515 44.22383064 -7 46 C-11.87281022 48.10416805 -15.79638365 48.06959569 -21 48 C-21.02464775 42.46411467 -21.04283496 36.928261 -21.05493164 31.39233398 C-21.05997244 29.5075627 -21.06680498 27.62279535 -21.07543945 25.73803711 C-21.08751617 23.03498364 -21.09323068 20.33198169 -21.09765625 17.62890625 C-21.10281754 16.78099014 -21.10797882 15.93307404 -21.11329651 15.0594635 C-21.11349195 13.03928932 -21.06206211 11.01922066 -21 9 C-20 8 -20 8 -17.49609375 7.90234375 C-15.98208984 7.91974609 -15.98208984 7.91974609 -14.4375 7.9375 C-13.42558594 7.94652344 -12.41367187 7.95554687 -11.37109375 7.96484375 C-10.19740234 7.98224609 -10.19740234 7.98224609 -9 8 C-9 7.34 -9 6.68 -9 6 C-8.2575 5.7525 -7.515 5.505 -6.75 5.25 C-3.79396573 3.90634806 -2.23312872 2.31013315 0 0 Z " fill="#FCB947" transform="translate(62,112)"/>
<path d="M0 0 C0.99 0.33 1.98 0.66 3 1 C4.51773426 1.14130906 6.04021959 1.23452957 7.56323242 1.29711914 C8.94432442 1.3570681 8.94432442 1.3570681 10.35331726 1.41822815 C11.83938225 1.47610756 11.83938225 1.47610756 13.35546875 1.53515625 C14.88062859 1.59962196 14.88062859 1.59962196 16.43659973 1.66539001 C19.68674537 1.80183013 22.93710159 1.93223457 26.1875 2.0625 C28.38999048 2.15389971 30.59246471 2.2456917 32.79492188 2.33789062 C38.19643432 2.56314722 43.59813197 2.78344777 49 3 C49 3.33 49 3.66 49 4 C48.25838623 4.00410889 47.51677246 4.00821777 46.75268555 4.01245117 C43.3968092 4.04531841 40.04276512 4.11595525 36.6875 4.1875 C35.52025391 4.19330078 34.35300781 4.19910156 33.15039062 4.20507812 C32.03212891 4.23408203 30.91386719 4.26308594 29.76171875 4.29296875 C28.73006592 4.3086792 27.69841309 4.32438965 26.63549805 4.34057617 C23.79680657 4.75634257 23.79680657 4.75634257 22.24023438 7.34960938 C21.83095703 8.22423828 21.42167969 9.09886719 21 10 C20.47019531 11.02738281 19.94039062 12.05476563 19.39453125 13.11328125 C18.87246094 14.16902344 18.35039063 15.22476563 17.8125 16.3125 C16.884375 18.189375 15.95625 20.06625 15 22 C7.41 22 -0.18 22 -8 22 C-8 19.69 -8 17.38 -8 15 C-7.01 15 -6.02 15 -5 15 C-5 12.69 -5 10.38 -5 8 C-4.34 7.67 -3.68 7.34 -3 7 C-2.34444881 4.47266765 -2.34444881 4.47266765 -2 2 C-1.34 2 -0.68 2 0 2 C0 1.34 0 0.68 0 0 Z " fill="#E36C77" transform="translate(38,58)"/>
<path d="M0 0 C14.85 0 29.7 0 45 0 C45 0.66 45 1.32 45 2 C43.14652954 1.95286865 43.14652954 1.95286865 41.25561523 1.90478516 C36.65073951 1.79580173 32.04597665 1.72716434 27.44018555 1.67041016 C25.45073243 1.6403233 23.46141102 1.59944246 21.47241211 1.54736328 C18.60497485 1.47418875 15.73929756 1.44046321 12.87109375 1.4140625 C11.98852402 1.38309479 11.10595428 1.35212708 10.19664001 1.32022095 C5.08062191 1.31746194 1.00038318 1.91969314 -2.72865295 5.6378479 C-5.81188183 11.36646118 -4.96133483 18.65158024 -4.90234375 24.9921875 C-4.91173309 26.66515034 -4.92419352 28.33809851 -4.93959045 30.01101685 C-4.97177811 34.40072537 -4.96238841 38.78938779 -4.94421387 43.17913818 C-4.93304508 47.66381215 -4.9613698 52.14821981 -4.98632812 56.6328125 C-5.02944492 65.42217493 -5.02496818 74.21056699 -5 83 C-11.27 83 -17.54 83 -24 83 C-24 75.03788695 -23.76545487 72.66838317 -19 67 C-14.52825619 63.11152712 -11.7936442 62.8356413 -6 63 C-6.01110306 62.2947821 -6.02220612 61.58956421 -6.03364563 60.86297607 C-6.13388586 54.2126478 -6.20998354 47.5625307 -6.25906086 40.91161728 C-6.28514091 37.49234507 -6.3205065 34.07369772 -6.37719727 30.65478516 C-6.44198227 26.72305822 -6.4661939 22.79158311 -6.48828125 18.859375 C-6.51408768 17.63321472 -6.5398941 16.40705444 -6.56648254 15.14373779 C-6.5668602 14.00285706 -6.56723785 12.86197632 -6.56762695 11.68652344 C-6.57873001 10.68280701 -6.58983307 9.67909058 -6.60127258 8.6449585 C-5.78071307 5.03537124 -3.96190011 4.07412237 -1 2 C-0.67 1.34 -0.34 0.68 0 0 Z " fill="#D98C00" transform="translate(141,135)"/>
<path d="M0 0 C1.05509766 -0.00386719 2.11019531 -0.00773437 3.19726562 -0.01171875 C4.29876953 -0.00011719 5.40027344 0.01148438 6.53515625 0.0234375 C7.63279297 0.01183594 8.73042969 0.00023437 9.86132812 -0.01171875 C10.91771484 -0.00785156 11.97410156 -0.00398438 13.0625 0 C14.51064087 0.00507568 14.51064087 0.00507568 15.98803711 0.01025391 C19.03485299 0.46347097 20.42260248 1.23762874 22.59765625 3.3984375 C22.97265625 6.4609375 22.97265625 6.4609375 22.59765625 9.3984375 C20.59765625 11.3984375 20.59765625 11.3984375 17.92382812 11.64135742 C16.81587891 11.63724854 15.70792969 11.63313965 14.56640625 11.62890625 C12.76236328 11.62600586 12.76236328 11.62600586 10.921875 11.62304688 C9.02888672 11.60467773 9.02888672 11.60467773 7.09765625 11.5859375 C5.20466797 11.5849707 5.20466797 11.5849707 3.2734375 11.58398438 C-6.12188007 11.53866934 -6.12188007 11.53866934 -8.40234375 10.3984375 C-8.7684648 3.93029894 -8.7684648 3.93029894 -7.22827148 1.69287109 C-4.74012884 -0.07101877 -3.03456598 0.01064849 0 0 Z " fill="#FEF3F4" transform="translate(69.40234375,47.6015625)"/>
<path d="M0 0 C1.32 0 2.64 0 4 0 C5.3726682 1.97321053 6.70427617 3.97543152 8 6 C10.10039331 7.38868516 10.10039331 7.38868516 12 8 C12 8.66 12 9.32 12 10 C19.5665922 9.84948912 24.32905601 9.18831046 30 4 C31.45050496 1.86624263 31.45050496 1.86624263 32 0 C33.32 0 34.64 0 36 0 C37.3726682 1.97321053 38.70427617 3.97543152 40 6 C42.10039331 7.38868516 42.10039331 7.38868516 44 8 C44 8.66 44 9.32 44 10 C51.5665922 9.84948912 56.32905601 9.18831046 62 4 C63.45050496 1.86624263 63.45050496 1.86624263 64 0 C65.32 0 66.64 0 68 0 C69.3726682 1.97321053 70.70427617 3.97543152 72 6 C74.10039331 7.38868516 74.10039331 7.38868516 76 8 C76 8.66 76 9.32 76 10 C83.63622745 9.84810397 88.19591226 9.07857677 94 4 C94.51691406 3.45214844 95.03382813 2.90429688 95.56640625 2.33984375 C97 1 97 1 98.9375 0.9375 C102.037347 2.53439088 103.25018808 5.06281571 105 8 C102.33333333 6.66666667 99.66666667 5.33333333 97 4 C96.66871094 4.5053125 96.33742188 5.010625 95.99609375 5.53125 C93.14267695 9.13556596 91.05848804 10.78642481 86.4765625 11.7109375 C79.94439628 11.98474087 75.12682198 11.93128173 70.0625 7.5 C68.22265625 5.53125 68.22265625 5.53125 67 4 C64.14284195 5.16402735 62.8008028 6.22396959 60.70703125 8.578125 C56.36068848 12.46662791 52.29877205 11.79414444 46.6953125 11.640625 C41.28658356 10.70295952 38.36315164 8.21199822 35 4 C32.14284195 5.16402735 30.8008028 6.22396959 28.70703125 8.578125 C24.36068848 12.46662791 20.29877205 11.79414444 14.6953125 11.640625 C9.28658356 10.70295952 6.36315164 8.21199822 3 4 C0.12460623 5.17145672 -1.18096616 6.20847052 -3.26171875 8.60546875 C-6.75797243 11.6628204 -9.40352926 11.5867422 -13.8125 11.3125 C-14.50537109 11.28994141 -15.19824219 11.26738281 -15.91210938 11.24414062 C-17.60901573 11.18562661 -19.30479861 11.0959548 -21 11 C-21.33 10.34 -21.66 9.68 -22 9 C-21.14277344 9.05800781 -20.28554687 9.11601563 -19.40234375 9.17578125 C-11.70957812 9.64368873 -11.70957812 9.64368873 -4.8125 6.75 C-1.7534771 3.76024548 -1.7534771 3.76024548 0 0 Z " fill="#FE8715" transform="translate(94,110)"/>
<path d="M0 0 C5.58603527 0.01041305 11.1720754 0.01483527 16.75811768 0.01983643 C27.6285727 0.03041407 38.49900682 0.04737524 49.3694458 0.06866455 C49.3694458 0.72866455 49.3694458 1.38866455 49.3694458 2.06866455 C37.90006745 2.20162055 26.43066376 2.33212546 14.96122551 2.45981598 C9.63081405 2.51923035 4.30041327 2.57937301 -1.02996826 2.64141846 C-27.89805513 2.95354458 -54.76057756 3.14725913 -81.6305542 3.06866455 C-78.40882529 1.17951186 -75.92853417 0.77683473 -72.21429443 0.65679932 C-71.08725601 0.61836411 -69.96021759 0.57992889 -68.79902649 0.54032898 C-67.54589157 0.50971878 -66.29275665 0.47910858 -65.00164795 0.4475708 C-64.3428256 0.42901094 -63.68400326 0.41045109 -63.0052166 0.39132881 C-42.011078 -0.19749957 -20.99999667 -0.0434248 0 0 Z " fill="#EE394A" transform="translate(168.63055419921875,57.93133544921875)"/>
<path d="M0 0 C0.86320862 -0.01235687 1.72641724 -0.02471375 2.61578369 -0.03744507 C4.44137814 -0.05699427 6.26707775 -0.06824042 8.09277344 -0.07177734 C10.86835691 -0.0858248 13.63938861 -0.15311679 16.4140625 -0.22265625 C18.19268843 -0.23506098 19.97134002 -0.24427732 21.75 -0.25 C22.57111267 -0.27671783 23.39222534 -0.30343567 24.23822021 -0.33096313 C29.73149928 -0.26709106 33.67836805 1.04374256 37.63653564 4.95477295 C41.03856869 10.80006294 40.09397122 18.07432424 39.921875 24.62890625 C39.90693876 26.3003925 39.89555827 27.97191397 39.88757324 29.64344788 C39.85714645 34.02558488 39.77867037 38.40557271 39.68994141 42.78686523 C39.60784235 47.26451547 39.57151079 51.74251586 39.53125 56.22070312 C39.4456622 64.99447174 39.30927574 73.76649917 39.140625 82.5390625 C38.810625 82.5390625 38.480625 82.5390625 38.140625 82.5390625 C38.13475876 81.6186467 38.12889252 80.6982309 38.12284851 79.74992371 C38.06498463 71.08287649 37.9929444 62.41608871 37.90491009 53.74929333 C37.86015072 49.29341115 37.82090707 44.83762158 37.79418945 40.3815918 C37.76821172 36.08259051 37.72784912 31.78394454 37.67743874 27.48516273 C37.66073245 25.84373704 37.64924164 24.20224984 37.64301109 22.56075096 C37.63341054 20.26432269 37.60540186 17.96881119 37.57299805 15.67260742 C37.55634346 13.7106971 37.55634346 13.7106971 37.53935242 11.70915222 C37.41368774 8.58197189 37.41368774 8.58197189 35.74804688 6.69668579 C34.95237305 6.12366226 34.95237305 6.12366226 34.140625 5.5390625 C33.43075439 4.9927417 32.72088379 4.4464209 31.98950195 3.88354492 C28.19782484 2.09412287 24.67086666 2.06088086 20.55859375 2.02734375 C19.74441483 2.00939255 18.9302359 1.99144135 18.09138489 1.97294617 C15.50368348 1.9189804 12.91616507 1.88499225 10.328125 1.8515625 C8.56833399 1.81837722 6.80856708 1.78388644 5.04882812 1.74804688 C0.74622607 1.66326208 -3.55632301 1.59638585 -7.859375 1.5390625 C-8.189375 2.5290625 -8.519375 3.5190625 -8.859375 4.5390625 C-10.179375 4.2090625 -11.499375 3.8790625 -12.859375 3.5390625 C-9.06606258 -0.30675695 -5.07832724 0.03965805 0 0 Z " fill="#AC4E81" transform="translate(152.859375,135.4609375)"/>
<path d="M0 0 C0.98178223 -0.00218285 0.98178223 -0.00218285 1.98339844 -0.00440979 C3.36527972 -0.00275204 4.7471797 0.00879582 6.12890625 0.02954102 C8.24298592 0.05849768 10.35455736 0.05015083 12.46875 0.03710938 C13.81251218 0.04334718 15.15626644 0.05173847 16.5 0.0625 C17.72203125 0.07224854 18.9440625 0.08199707 20.203125 0.09204102 C23.25 0.49609375 23.25 0.49609375 25.1484375 1.80444336 C27.01302338 4.6678555 26.60347973 7.19694961 26.25 10.49609375 C24.34924018 13.34723348 22.50901097 13.84235295 19.25 14.49609375 C15.46184268 14.76753218 11.67185725 14.77317531 7.875 14.80859375 C6.84632812 14.83759766 5.81765625 14.86660156 4.7578125 14.89648438 C-1.34485508 14.94760208 -5.20500085 14.76424016 -9.75 10.49609375 C-10.37880425 7.14247108 -10.19906146 5.36595338 -8.63671875 2.33959961 C-5.87134283 -0.36243889 -3.81085869 -0.0057786 0 0 Z M-5.57592773 2.79052734 C-7.46954294 5.54136864 -6.93277991 8.26698193 -6.75 11.49609375 C-2.2872169 13.7274853 3.84910332 12.68109074 8.75 12.68359375 C10.64298828 12.70196289 10.64298828 12.70196289 12.57421875 12.72070312 C14.37826172 12.72360352 14.37826172 12.72360352 16.21875 12.7265625 C17.32669922 12.73067139 18.43464844 12.73478027 19.57617188 12.73901367 C22.40305957 12.7698533 22.40305957 12.7698533 24.25 10.49609375 C24.75010524 7.53840198 24.75010524 7.53840198 24.25 4.49609375 C21.22056385 1.48649818 18.90124318 1.11232944 14.71484375 1.09765625 C13.65845703 1.09378906 12.60207031 1.08992188 11.51367188 1.0859375 C10.41603516 1.09753906 9.31839844 1.10914063 8.1875 1.12109375 C7.08599609 1.10949219 5.98449219 1.09789062 4.84960938 1.0859375 C3.79451172 1.08980469 2.73941406 1.09367187 1.65234375 1.09765625 C0.68804443 1.10104004 -0.27625488 1.10442383 -1.26977539 1.10791016 C-3.77721492 1.31179855 -3.77721492 1.31179855 -5.57592773 2.79052734 Z " fill="#FA9FA8" transform="translate(67.75,46.50390625)"/>
<path d="M0 0 C14.85 0 29.7 0 45 0 C45 0.66 45 1.32 45 2 C43.14652954 1.95286865 43.14652954 1.95286865 41.25561523 1.90478516 C36.65073951 1.79580173 32.04597665 1.72716434 27.44018555 1.67041016 C25.45073243 1.6403233 23.46141102 1.59944246 21.47241211 1.54736328 C18.60497485 1.47418875 15.73929756 1.44046321 12.87109375 1.4140625 C11.98852402 1.38309479 11.10595428 1.35212708 10.19664001 1.32022095 C5.08062191 1.31746194 1.00038318 1.91969314 -2.72865295 5.6378479 C-5.81188183 11.36646118 -4.96133483 18.65158024 -4.90234375 24.9921875 C-4.91173309 26.66515034 -4.92419352 28.33809851 -4.93959045 30.01101685 C-4.97177811 34.40072537 -4.96238841 38.78938779 -4.94421387 43.17913818 C-4.93304508 47.66381215 -4.9613698 52.14821981 -4.98632812 56.6328125 C-5.02944452 65.42209295 -5.02862027 74.21066173 -5 83 C-5.33 83 -5.66 83 -6 83 C-6.11582308 73.02965481 -6.20467928 63.0594695 -6.25906086 53.08858871 C-6.28516082 48.45871986 -6.32056571 43.82931108 -6.37719727 39.19970703 C-6.43150349 34.7322665 -6.46141753 30.26526861 -6.47438622 25.7975235 C-6.48362867 24.09261353 -6.50167732 22.38772793 -6.52865028 20.68300629 C-6.5649241 18.29562441 -6.56994634 15.91007382 -6.56762695 13.52246094 C-6.58560333 12.81683517 -6.60357971 12.11120941 -6.62210083 11.38420105 C-6.60127258 9.40423584 -6.60127258 9.40423584 -6 6 C-3.52702332 3.65484619 -3.52702332 3.65484619 -1 2 C-0.67 1.34 -0.34 0.68 0 0 Z " fill="#D77D38" transform="translate(141,135)"/>
<path d="M0 0 C0.33 0.66 0.66 1.32 1 2 C0.69720123 2.5555658 0.39440247 3.11113159 0.08242798 3.68353271 C-1.40861602 6.87446525 -1.28196004 9.54685699 -1.31884766 13.06347656 C-1.33391609 14.11773834 -1.33391609 14.11773834 -1.34928894 15.19329834 C-1.38010119 17.50906582 -1.39715036 19.82471779 -1.4140625 22.140625 C-1.43277575 23.74917595 -1.45234929 25.3577171 -1.4727478 26.96624756 C-1.52405851 31.1944806 -1.56368985 35.42274546 -1.60089111 39.65112305 C-1.64093744 43.96801621 -1.69202691 48.28477711 -1.7421875 52.6015625 C-1.83893422 61.06761796 -1.92334294 69.53373892 -2 78 C-2.33 78 -2.66 78 -3 78 C-3.06945668 68.27307263 -3.12278917 58.54620409 -3.15543652 48.8190794 C-3.17110424 44.30255574 -3.19236257 39.78620152 -3.22631836 35.26977539 C-3.25887255 30.91259403 -3.27684468 26.55557582 -3.28463173 22.19828224 C-3.29018235 20.53445682 -3.30102118 18.8706405 -3.31719017 17.20688438 C-3.33891251 14.87950596 -3.34196917 12.55280499 -3.34057617 10.2253418 C-3.351362 9.53482224 -3.36214783 8.84430267 -3.3732605 8.13285828 C-3.35405586 5.17492212 -3.3317169 3.42554348 -1.47871399 1.04841614 C-0.99073837 0.70243881 -0.50276276 0.35646149 0 0 Z " fill="#B35381" transform="translate(139,140)"/>
<path d="M0 0 C0 0.66 0 1.32 0 2 C-3.88461047 3.29487016 -7.55883956 3.1232604 -11.60546875 3.09765625 C-12.44467361 3.0962413 -13.28387848 3.09482635 -14.14851379 3.09336853 C-16.82821216 3.08777215 -19.5078269 3.07522035 -22.1875 3.0625 C-24.00455608 3.05748453 -25.82161348 3.05292171 -27.63867188 3.04882812 C-32.09248013 3.03780391 -36.54622589 3.02054178 -41 3 C-37.38220534 0.74804981 -34.24730053 0.69260673 -30.0390625 0.5859375 C-29.37087494 0.56657135 -28.70268738 0.5472052 -28.01425171 0.5272522 C-25.88462955 0.46770863 -23.75494777 0.42126131 -21.625 0.375 C-20.20049798 0.33678007 -18.77601807 0.29772605 -17.3515625 0.2578125 C-11.56705378 0.10179791 -5.78699759 -0.02106782 0 0 Z " fill="#EE5765" transform="translate(128,58)"/>
<path d="M0 0 C5.44585987 -0.36305732 5.44585987 -0.36305732 7.8125 1.1875 C9.27538036 3.42031739 9.64505955 5.37344067 10 8 C10.66 8 11.32 8 12 8 C12 8.66 12 9.32 12 10 C16.51887107 12.25943553 20.05060303 12.15965797 25 12 C25.99 12 26.98 12 28 12 C25.47307886 14.52692114 24.38806853 14.38257153 20.875 14.5 C15.42467106 14.42819066 12.5002587 12.94009439 8.36328125 9.5078125 C7 8 7 8 7 6 C5.68 6 4.36 6 3 6 C2.01 4.02 1.02 2.04 0 0 Z " fill="#FD6136" transform="translate(59,106)"/>
<path d="M0 0 C14.85 0 29.7 0 45 0 C45 0.66 45 1.32 45 2 C43.14652954 1.95286865 43.14652954 1.95286865 41.25561523 1.90478516 C36.65073951 1.79580173 32.04597665 1.72716434 27.44018555 1.67041016 C25.45073243 1.6403233 23.46141102 1.59944246 21.47241211 1.54736328 C18.60497485 1.47418875 15.73929756 1.44046321 12.87109375 1.4140625 C11.98852402 1.38309479 11.10595428 1.35212708 10.19664001 1.32022095 C4.43864357 1.31711573 1.50438023 2.45723542 -2.62046814 6.51278687 C-3.07571365 7.0035672 -3.53095917 7.49434753 -4 8 C-4.66 8.66 -5.32 9.32 -6 10 C-6 8.68 -6 7.36 -6 6 C-3.5625 3.875 -3.5625 3.875 -1 2 C-0.67 1.34 -0.34 0.68 0 0 Z " fill="#E28537" transform="translate(141,135)"/>
<path d="M0 0 C1.21816406 0.03480469 1.21816406 0.03480469 2.4609375 0.0703125 C3.68683594 0.09738281 3.68683594 0.09738281 4.9375 0.125 C5.87722656 0.15980469 5.87722656 0.15980469 6.8359375 0.1953125 C7.1659375 0.8553125 7.4959375 1.5153125 7.8359375 2.1953125 C6.84013672 2.35966797 6.84013672 2.35966797 5.82421875 2.52734375 C-0.56903607 3.67532965 -5.87457309 4.99799465 -10.1640625 10.1953125 C-11.17345002 13.14566812 -11.17345002 13.14566812 -11.8515625 16.3828125 C-12.10292969 17.46949219 -12.35429687 18.55617187 -12.61328125 19.67578125 C-12.79503906 20.50722656 -12.97679687 21.33867187 -13.1640625 22.1953125 C-15.5390625 21.8828125 -15.5390625 21.8828125 -18.1640625 21.1953125 C-18.8240625 20.2053125 -19.4840625 19.2153125 -20.1640625 18.1953125 C-17.1640625 19.6953125 -17.1640625 19.6953125 -14.1640625 21.1953125 C-14.2878125 19.4009375 -14.2878125 19.4009375 -14.4140625 17.5703125 C-14.39809578 13.04374645 -13.1208448 10.69676522 -10.1640625 7.1953125 C-8.23022496 5.41440599 -6.23901092 3.81918517 -4.1640625 2.1953125 C-2.1640625 0.1953125 -2.1640625 0.1953125 0 0 Z " fill="#EC8912" transform="translate(206.1640625,118.8046875)"/>
<path d="M0 0 C0 0.99 0 1.98 0 3 C-1.546875 3.12375 -1.546875 3.12375 -3.125 3.25 C-8.94211988 4.37589417 -11.88410951 6.43172148 -15.3125 11.25 C-17.32319261 15.09617963 -17.69838596 18.70199993 -18 23 C-18.66 23 -19.32 23 -20 23 C-19.9728585 16.37747492 -19.06207329 11.83006332 -14.75390625 6.69140625 C-10.68477639 2.76727879 -5.74169316 0 0 0 Z " fill="#EE9A00" transform="translate(135,195)"/>
<path d="M0 0 C2.86724686 0.57344937 3.8614515 0.8614515 6 3 C6 4.32 6 5.64 6 7 C6.66 7 7.32 7 8 7 C7.67 7.99 7.34 8.98 7 10 C6.34 8.68 5.68 7.36 5 6 C3.02 6 1.04 6 -1 6 C-1.66 7.32 -2.32 8.64 -3 10 C-3.99 10 -4.98 10 -6 10 C-5.566875 9.649375 -5.13375 9.29875 -4.6875 8.9375 C-2.31641544 6.21514365 -1.3283165 3.35241784 0 0 Z " fill="#FD513E" transform="translate(190,106)"/>
<path d="M0 0 C1.32327301 0.00636726 1.32327301 0.00636726 2.67327881 0.01286316 C5.48562383 0.02963037 8.29724726 0.06727877 11.109375 0.10546875 C13.0182188 0.12051813 14.92707386 0.13420609 16.8359375 0.14648438 C21.51069389 0.17952748 26.18491218 0.2312962 30.859375 0.29296875 C30.859375 0.62296875 30.859375 0.95296875 30.859375 1.29296875 C17.989375 1.29296875 5.119375 1.29296875 -8.140625 1.29296875 C-8.470625 2.28296875 -8.800625 3.27296875 -9.140625 4.29296875 C-10.460625 3.96296875 -11.780625 3.63296875 -13.140625 3.29296875 C-9.3093206 -0.68040556 -5.14707502 -0.09328808 0 0 Z " fill="#B95687" transform="translate(153.140625,135.70703125)"/>
<path d="M0 0 C0.5625 1.9375 0.5625 1.9375 1 4 C0.67 4.33 0.34 4.66 0 5 C-0.08767112 7.07262076 -0.10695873 9.14820294 -0.09765625 11.22265625 C-0.09443359 12.48271484 -0.09121094 13.74277344 -0.08789062 15.04101562 C-0.07953403 16.38151109 -0.07106907 17.72200588 -0.0625 19.0625 C-0.0574866 20.40689942 -0.05292342 21.7513006 -0.04882812 23.09570312 C-0.03699488 26.39717941 -0.02050971 29.69856803 0 33 C-0.66 32.67 -1.32 32.34 -2 32 C-2.04938628 27.76417673 -2.08571263 23.52850535 -2.10986328 19.29248047 C-2.11992963 17.85104453 -2.1335838 16.40962905 -2.15087891 14.96826172 C-2.17510012 12.89806066 -2.18647641 10.82812924 -2.1953125 8.7578125 C-2.20578613 7.5114502 -2.21625977 6.26508789 -2.22705078 4.98095703 C-2 2 -2 2 0 0 Z " fill="#A23BB5" transform="translate(67,139)"/>
<path d="M0 0 C0.78688445 2.77723925 1.11949924 5.22610077 1.09765625 8.109375 C1.09443359 8.86347656 1.09121094 9.61757812 1.08789062 10.39453125 C1.07951172 11.17183594 1.07113281 11.94914062 1.0625 12.75 C1.05798828 13.54277344 1.05347656 14.33554688 1.04882812 15.15234375 C1.03708565 17.10159508 1.01915146 19.05080738 1 21 C-0.48046875 19.96875 -0.48046875 19.96875 -2 18 C-2.2719239 15.40356536 -2.37409761 13.08709951 -2.3125 10.5 C-2.31572266 9.82324219 -2.31894531 9.14648438 -2.32226562 8.44921875 C-2.28230168 4.76526986 -2.09194697 3.13792046 0 0 Z " fill="#FD6473" transform="translate(52,80)"/>
<path d="M0 0 C0.33 0.66 0.66 1.32 1 2 C-4.60115228 6.73943655 -9.94646251 7.24322543 -17 7 C-17 6.67 -17 6.34 -17 6 C-16.443125 5.81824219 -15.88625 5.63648438 -15.3125 5.44921875 C-10.15803009 3.75137815 -5.06989385 1.93577765 0 0 Z " fill="#FFB632" transform="translate(58,153)"/>
<path d="M0 0 C1.32 0.33 2.64 0.66 4 1 C4.33 2.65 4.66 4.3 5 6 C4.67 5.34 4.34 4.68 4 4 C2.68 4 1.36 4 0 4 C-0.2475 4.78375 -0.495 5.5675 -0.75 6.375 C-2.15389099 9.32317108 -3.00675737 9.9024777 -6 11 C-5.38125 9.9275 -4.7625 8.855 -4.125 7.75 C-2.6676321 5.20219016 -1.27075509 2.64740645 0 0 Z " fill="#FD573A" transform="translate(158,106)"/>
<path d="M0 0 C1.32 0.33 2.64 0.66 4 1 C4.33 2.65 4.66 4.3 5 6 C4.67 5.34 4.34 4.68 4 4 C2.68 4 1.36 4 0 4 C-0.2475 4.78375 -0.495 5.5675 -0.75 6.375 C-2.15389099 9.32317108 -3.00675737 9.9024777 -6 11 C-5.38125 9.9275 -4.7625 8.855 -4.125 7.75 C-2.6676321 5.20219016 -1.27075509 2.64740645 0 0 Z " fill="#FD573A" transform="translate(126,106)"/>
<path d="M0 0 C1.32 0.33 2.64 0.66 4 1 C4.33 2.65 4.66 4.3 5 6 C4.67 5.34 4.34 4.68 4 4 C2.68 4 1.36 4 0 4 C-0.2475 4.78375 -0.495 5.5675 -0.75 6.375 C-2.15389099 9.32317108 -3.00675737 9.9024777 -6 11 C-5.38125 9.9275 -4.7625 8.855 -4.125 7.75 C-2.6676321 5.20219016 -1.27075509 2.64740645 0 0 Z " fill="#FD573A" transform="translate(94,106)"/>
<path d="M0 0 C4.62 0 9.24 0 14 0 C13.01 1.485 13.01 1.485 12 3 C9.3984375 3.29296875 9.3984375 3.29296875 6.375 3.1875 C4.87066406 3.14689453 4.87066406 3.14689453 3.3359375 3.10546875 C2.56507813 3.07066406 1.79421875 3.03585938 1 3 C0.67 2.01 0.34 1.02 0 0 Z " fill="#FD5839" transform="translate(169,117)"/>
<path d="M0 0 C4.62 0 9.24 0 14 0 C13.01 1.485 13.01 1.485 12 3 C9.3984375 3.29296875 9.3984375 3.29296875 6.375 3.1875 C4.87066406 3.14689453 4.87066406 3.14689453 3.3359375 3.10546875 C2.56507813 3.07066406 1.79421875 3.03585938 1 3 C0.67 2.01 0.34 1.02 0 0 Z " fill="#FD5839" transform="translate(137,117)"/>
<path d="M0 0 C4.62 0 9.24 0 14 0 C13.01 1.485 13.01 1.485 12 3 C9.3984375 3.29296875 9.3984375 3.29296875 6.375 3.1875 C4.87066406 3.14689453 4.87066406 3.14689453 3.3359375 3.10546875 C2.56507812 3.07066406 1.79421875 3.03585938 1 3 C0.67 2.01 0.34 1.02 0 0 Z " fill="#FD5839" transform="translate(105,117)"/>
<path d="M0 0 C0.66 0.33 1.32 0.66 2 1 C0.75 2.5 0.75 2.5 -1 4 C-2.32 4 -3.64 4 -5 4 C-5 4.66 -5 5.32 -5 6 C-8.63 6 -12.26 6 -16 6 C-16 5.67 -16 5.34 -16 5 C-14.845 4.9175 -13.69 4.835 -12.5 4.75 C-8.3379923 4.2612233 -5.26691831 2.82351854 -1.6640625 0.7421875 C-1.11492188 0.49726562 -0.56578125 0.25234375 0 0 Z " fill="#FD8B71" transform="translate(58,114)"/>
<path d="M0 0 C0 0.66 0 1.32 0 2 C-1.98 2 -3.96 2 -6 2 C-6.66 3.32 -7.32 4.64 -8 6 C-8.99 6 -9.98 6 -11 6 C-10.525625 5.566875 -10.05125 5.13375 -9.5625 4.6875 C-7.76313043 2.97690387 -7.76313043 2.97690387 -7 0 C-4.3333581 -1.33332095 -2.83319697 -0.67102033 0 0 Z " fill="#FD6330" transform="translate(195,110)"/>
<path d="M0 0 C1.32 0.33 2.64 0.66 4 1 C2 3 2 3 -1.0390625 3.1953125 C-2.22242188 3.17210938 -3.40578125 3.14890625 -4.625 3.125 C-5.81351563 3.10695313 -7.00203125 3.08890625 -8.2265625 3.0703125 C-9.14179687 3.04710938 -10.05703125 3.02390625 -11 3 C-11 2.67 -11 2.34 -11 2 C-7.37 2 -3.74 2 0 2 C0 1.34 0 0.68 0 0 Z " fill="#FEA85B" transform="translate(53,118)"/>
<path d="M0 0 C-3.42094242 2.28062828 -4.68187222 2.21925007 -8.6875 2.125 C-10.17830078 2.09792969 -10.17830078 2.09792969 -11.69921875 2.0703125 C-12.45847656 2.04710937 -13.21773437 2.02390625 -14 2 C-14 1.67 -14 1.34 -14 1 C-12.41913952 0.63495397 -10.83516093 0.28339494 -9.25 -0.0625 C-8.36828125 -0.25972656 -7.4865625 -0.45695313 -6.578125 -0.66015625 C-4.01320972 -0.99825872 -2.42908361 -0.81158635 0 0 Z " fill="#FFAB13" transform="translate(55,159)"/>
<path d="M0 0 C0.66 0 1.32 0 2 0 C2 1.98 2 3.96 2 6 C1.34 6 0.68 6 0 6 C-0.33 6.66 -0.66 7.32 -1 8 C-1.04241723 5.66705225 -1.04092937 3.33297433 -1 1 C-0.67 0.67 -0.34 0.34 0 0 Z " fill="#FEB937" transform="translate(61,143)"/>
</svg>
